<?xml version="1.0" encoding="utf-8"?>
<!-- Generator: Adobe Illustrator 24.0.2, SVG Export Plug-In . SVG Version: 6.00 Build 0)  -->
<svg version="1.1" id="Layer_1" xmlns="http://www.w3.org/2000/svg" xmlns:xlink="http://www.w3.org/1999/xlink" x="0px" y="0px"
	 viewBox="0 0 449 378" enable-background="new 0 0 449 378" xml:space="preserve">
<g>
	<path fill="#3F3A3A" d="M30.5,64c0,5.523-4.478,10-10,10h-8c-5.522,0-10-4.477-10-10V45c0-5.523,4.478-10,10-10h8
		c5.522,0,10,4.477,10,10V64z"/>
	<path fill="#3F3A3A" d="M446.5,64c0,5.523-4.478,10-10,10h-8c-5.523,0-10-4.477-10-10V45c0-5.523,4.477-10,10-10h8
		c5.522,0,10,4.477,10,10V64z"/>
	<path fill="#211E1E" d="M418.5,347h-16v-2c0-2.209-1.791-4-4-4h-350c-2.209,0-4,1.791-4,4v2h-13c-2.209,0-4,1.791-4,4v20
		c0,2.209,1.791,4,4,4h31c2.209,0,4-1.791,4-4v-5h317v5c0,2.209,1.791,4,4,4h31c2.209,0,4-1.791,4-4v-20
		C422.5,348.791,420.709,347,418.5,347z"/>
	<path fill="#C1C1C1" d="M430.5,345c0,5.522-4.478,10-10,10h-394c-5.522,0-10-4.478-10-10V11c0-5.523,4.478-10,10-10h394
		c5.522,0,10,4.477,10,10V345z"/>
	<circle fill="#3F3939" stroke="#000000" stroke-miterlimit="10" cx="27.25" cy="14.75" r="2.75"/>
	<circle fill="#3F3939" stroke="#000000" stroke-miterlimit="10" cx="27.25" cy="343.75" r="2.75"/>
	<circle fill="#3F3939" stroke="#000000" stroke-miterlimit="10" cx="417.25" cy="343.75" r="2.75"/>
	<circle fill="#3F3939" stroke="#000000" stroke-miterlimit="10" cx="417.25" cy="14.75" r="2.75"/>
	<path fill="#FFFFFF" d="M404.5,242c0,5.523-4.478,10-10,10h-342c-5.523,0-10-4.477-10-10V40c0-5.523,4.477-10,10-10h342
		c5.522,0,10,4.477,10,10V242z"/>
	<g>
		<path fill="#070707" d="M181.223,289.23h6.803c1.77,0,3.287,0.164,4.553,0.492s2.414,0.943,3.445,1.846
			c2.684,2.297,4.025,5.789,4.025,10.477c0,1.547-0.135,2.959-0.404,4.236s-0.686,2.429-1.248,3.454s-1.283,1.942-2.162,2.751
			c-0.691,0.621-1.447,1.119-2.268,1.494s-1.702,0.639-2.646,0.791s-2.007,0.229-3.19,0.229h-6.803
			c-0.949,0-1.664-0.144-2.145-0.431s-0.794-0.691-0.94-1.213s-0.22-1.198-0.22-2.03V292.43c0-1.125,0.252-1.939,0.756-2.443
			S180.098,289.23,181.223,289.23z M183.244,293.361v17.49h3.955c0.867,0,1.547-0.023,2.039-0.07s1.002-0.164,1.529-0.352
			s0.984-0.451,1.371-0.791c1.746-1.477,2.619-4.02,2.619-7.629c0-2.543-0.384-4.447-1.151-5.713s-1.714-2.071-2.839-2.417
			s-2.484-0.519-4.078-0.519H183.244z"/>
		<path fill="#070707" d="M235.592,306.861c0,0.82-0.202,1.708-0.606,2.663s-1.04,1.893-1.907,2.813s-1.975,1.667-3.322,2.241
			s-2.918,0.861-4.711,0.861c-1.359,0-2.596-0.129-3.709-0.387s-2.124-0.659-3.032-1.204s-1.743-1.263-2.505-2.153
			c-0.68-0.809-1.26-1.714-1.74-2.716s-0.841-2.071-1.081-3.208s-0.36-2.344-0.36-3.621c0-2.074,0.302-3.932,0.905-5.572
			s1.468-3.044,2.593-4.21s2.443-2.054,3.955-2.663s3.123-0.914,4.834-0.914c2.086,0,3.943,0.416,5.572,1.248
			s2.877,1.86,3.744,3.085s1.301,2.382,1.301,3.472c0,0.598-0.211,1.125-0.633,1.582s-0.932,0.686-1.529,0.686
			c-0.668,0-1.169-0.158-1.503-0.475s-0.706-0.861-1.116-1.635c-0.68-1.277-1.479-2.232-2.399-2.865s-2.054-0.949-3.401-0.949
			c-2.145,0-3.853,0.814-5.124,2.443s-1.907,3.943-1.907,6.943c0,2.004,0.281,3.671,0.844,5.001s1.359,2.323,2.391,2.979
			s2.238,0.984,3.621,0.984c1.5,0,2.769-0.372,3.806-1.116s1.819-1.837,2.347-3.278c0.223-0.68,0.498-1.233,0.826-1.661
			s0.855-0.642,1.582-0.642c0.621,0,1.154,0.217,1.6,0.65S235.592,306.217,235.592,306.861z"/>
		<path fill="#070707" d="M249.32,304.348v-12.393c0-1.055,0.237-1.846,0.712-2.373s1.099-0.791,1.872-0.791
			c0.809,0,1.45,0.264,1.925,0.791s0.712,1.318,0.712,2.373v12.674c0,1.441,0.161,2.646,0.483,3.612s0.894,1.717,1.714,2.25
			s1.969,0.8,3.445,0.8c2.039,0,3.48-0.542,4.324-1.626s1.266-2.728,1.266-4.931v-12.779c0-1.066,0.234-1.86,0.703-2.382
			s1.096-0.782,1.881-0.782s1.421,0.261,1.907,0.782s0.729,1.315,0.729,2.382v12.393c0,2.016-0.196,3.697-0.589,5.045
			s-1.134,2.531-2.224,3.551c-0.938,0.867-2.027,1.5-3.27,1.898s-2.695,0.598-4.359,0.598c-1.98,0-3.686-0.214-5.115-0.642
			s-2.596-1.09-3.498-1.986s-1.564-2.045-1.986-3.445S249.32,306.293,249.32,304.348z"/>
	</g>
</g>
</svg>
