<?xml version="1.0" encoding="utf-8"?>
<!-- Generator: Adobe Illustrator 15.0.0, SVG Export Plug-In . SVG Version: 6.00 Build 0)  -->
<!DOCTYPE svg PUBLIC "-//W3C//DTD SVG 1.1//EN" "http://www.w3.org/Graphics/SVG/1.1/DTD/svg11.dtd">
<svg version="1.1" id="Layer_1" xmlns="http://www.w3.org/2000/svg" xmlns:xlink="http://www.w3.org/1999/xlink" x="0px" y="0px"
	 width="312px" height="378px" viewBox="0 0 312 378" enable-background="new 0 0 312 378" xml:space="preserve">
<path fill="#211E1E" d="M28,64c0,5.523-4.478,10-10,10h-8C4.478,74,0,69.523,0,64V45c0-5.523,4.478-10,10-10h8
	c5.522,0,10,4.477,10,10V64z"/>
<path fill="#211E1E" d="M312,64c0,5.523-4.478,10-10,10h-8c-5.522,0-10-4.477-10-10V45c0-5.523,4.478-10,10-10h8
	c5.522,0,10,4.477,10,10V64z"/>
<path fill="#211E1E" d="M64,371c0,2.209-1.791,4-4,4H29c-2.209,0-4-1.791-4-4v-20c0-2.209,1.791-4,4-4h31c2.209,0,4,1.791,4,4V371z"
	/>
<path fill="#211E1E" d="M288,371c0,2.209-1.791,4-4,4h-31c-2.209,0-4-1.791-4-4v-20c0-2.209,1.791-4,4-4h31c2.209,0,4,1.791,4,4V371
	z"/>
<path fill="#211E1E" d="M270,362c0,2.209-1.791,4-4,4H46c-2.209,0-4-1.791-4-4v-17c0-2.209,1.791-4,4-4h220c2.209,0,4,1.791,4,4V362
	z"/>
<path fill="#8C8B8B" d="M-65,614c0,5.522-4.478,10-10,10h-264c-5.522,0-10-4.478-10-10V370c0-5.523,4.478-10,10-10h264
	c5.522,0,10,4.477,10,10V614z"/>
<path fill="#8C8B8B" d="M298,345c0,5.522-4.478,10-10,10H24c-5.522,0-10-4.478-10-10V11c0-5.523,4.478-10,10-10h264
	c5.522,0,10,4.477,10,10V345z"/>
<circle fill="#3F3939" stroke="#000000" stroke-miterlimit="10" cx="24.75" cy="14.75" r="2.75"/>
<circle fill="#3F3939" stroke="#000000" stroke-miterlimit="10" cx="24.75" cy="343.75" r="2.75"/>
<circle fill="#3F3939" stroke="#000000" stroke-miterlimit="10" cx="286.75" cy="343.75" r="2.75"/>
<circle fill="#3F3939" stroke="#000000" stroke-miterlimit="10" cx="286.75" cy="14.75" r="2.75"/>
<path fill="#FFFFFF" d="M272,242c0,5.523-4.478,10-10,10H50c-5.523,0-10-4.477-10-10V40c0-5.523,4.477-10,10-10h212
	c5.522,0,10,4.477,10,10V242z"/>
<text transform="matrix(1 0 0 1 114.2954 315)" fill="#070707" font-family="'MyriadPro-Regular'" font-size="36">D C U</text>
</svg>
