<?xml version="1.0" encoding="utf-8"?>
<!-- Generator: Adobe Illustrator 24.0.2, SVG Export Plug-In . SVG Version: 6.00 Build 0)  -->
<svg version="1.1" id="Layer_1" xmlns="http://www.w3.org/2000/svg" xmlns:xlink="http://www.w3.org/1999/xlink" x="0px" y="0px"
	 viewBox="0 0 449 378" style="enable-background:new 0 0 449 378;" xml:space="preserve">
<style type="text/css">
	.st0{fill:#3F3A3A;}
	.st1{fill:#211E1E;}
	.st2{fill:#C1C1C1;}
	.st3{fill:#3F3939;stroke:#000000;stroke-miterlimit:10;}
	.st4{fill:#FFFFFF;}
	.st5{fill:#070707;}
</style>
<g>
	<path class="st0" d="M30.5,64c0,5.5-4.5,10-10,10h-8c-5.5,0-10-4.5-10-10V45c0-5.5,4.5-10,10-10h8c5.5,0,10,4.5,10,10V64z"/>
	<path class="st0" d="M446.5,64c0,5.5-4.5,10-10,10h-8c-5.5,0-10-4.5-10-10V45c0-5.5,4.5-10,10-10h8c5.5,0,10,4.5,10,10V64z"/>
	<path class="st1" d="M418.5,347h-16v-2c0-2.2-1.8-4-4-4h-350c-2.2,0-4,1.8-4,4v2h-13c-2.2,0-4,1.8-4,4v20c0,2.2,1.8,4,4,4h31
		c2.2,0,4-1.8,4-4v-5h317v5c0,2.2,1.8,4,4,4h31c2.2,0,4-1.8,4-4v-20C422.5,348.8,420.7,347,418.5,347z"/>
	<path class="st2" d="M430.5,365c0-14.5-4.5-10-10-10h-394c-5.5,0-10-4.5-10,10V31c0-25.5,4.5-30,10-30h394c5.5,0,10,4.5,10,30V365z
		"/>
	<circle class="st3" cx="27.3" cy="14.8" r="2.8"/>
	<circle class="st3" cx="27.3" cy="343.8" r="2.8"/>
	<circle class="st3" cx="417.3" cy="343.8" r="2.8"/>
	<circle class="st3" cx="417.3" cy="14.8" r="2.8"/>
	<path class="st4" d="M404.5,262c0,5.5-4.5,10-10,10h-342c-5.5,0-10-4.5-10-10V40c0-5.5,4.5-10,10-10h342c5.5,0,10,4.5,10,10V262z"
		/>
	<g>
		<path class="st5" d="M181.2,299.2h6.8c1.8,0,3.3,0.2,4.6,0.5s2.4,0.9,3.4,1.8c2.7,2.3,4,5.8,4,10.5c0,1.5-0.1,3-0.4,4.2
			s-0.7,2.4-1.2,3.5s-1.3,1.9-2.2,2.8c-0.7,0.6-1.4,1.1-2.3,1.5s-1.7,0.6-2.6,0.8s-2,0.2-3.2,0.2h-6.8c-0.9,0-1.7-0.1-2.1-0.4
			s-0.8-0.7-0.9-1.2s-0.2-1.2-0.2-2v-18.9c0-1.1,0.3-1.9,0.8-2.4S180.1,299.2,181.2,299.2z M183.2,303.4v17.5h4c0.9,0,1.5,0,2-0.1
			s1-0.2,1.5-0.4s1-0.5,1.4-0.8c1.7-1.5,2.6-4,2.6-7.6c0-2.5-0.4-4.4-1.2-5.7s-1.7-2.1-2.8-2.4s-2.5-0.5-4.1-0.5L183.2,303.4
			L183.2,303.4z"/>
		<path class="st5" d="M235.6,316.9c0,0.8-0.2,1.7-0.6,2.7s-1,1.9-1.9,2.8s-2,1.7-3.3,2.2s-2.9,0.9-4.7,0.9c-1.4,0-2.6-0.1-3.7-0.4
			s-2.1-0.7-3-1.2s-1.7-1.3-2.5-2.2c-0.7-0.8-1.3-1.7-1.7-2.7s-0.8-2.1-1.1-3.2s-0.4-2.3-0.4-3.6c0-2.1,0.3-3.9,0.9-5.6
			s1.5-3,2.6-4.2s2.4-2.1,4-2.7s3.1-0.9,4.8-0.9c2.1,0,3.9,0.4,5.6,1.2s2.9,1.9,3.7,3.1s1.3,2.4,1.3,3.5c0,0.6-0.2,1.1-0.6,1.6
			s-0.9,0.7-1.5,0.7c-0.7,0-1.2-0.2-1.5-0.5s-0.7-0.9-1.1-1.6c-0.7-1.3-1.5-2.2-2.4-2.9s-2.1-0.9-3.4-0.9c-2.1,0-3.9,0.8-5.1,2.4
			s-1.9,3.9-1.9,6.9c0,2,0.3,3.7,0.8,5s1.4,2.3,2.4,3s2.2,1,3.6,1c1.5,0,2.8-0.4,3.8-1.1s1.8-1.8,2.3-3.3c0.2-0.7,0.5-1.2,0.8-1.7
			s0.9-0.6,1.6-0.6c0.6,0,1.2,0.2,1.6,0.6S235.6,316.2,235.6,316.9z"/>
		<path class="st5" d="M249.3,314.3V302c0-1.1,0.2-1.8,0.7-2.4s1.1-0.8,1.9-0.8c0.8,0,1.4,0.3,1.9,0.8s0.7,1.3,0.7,2.4v12.7
			c0,1.4,0.2,2.6,0.5,3.6s0.9,1.7,1.7,2.3c0.8,0.5,2,0.8,3.4,0.8c2,0,3.5-0.5,4.3-1.6s1.3-2.7,1.3-4.9V302c0-1.1,0.2-1.9,0.7-2.4
			s1.1-0.8,1.9-0.8s1.4,0.3,1.9,0.8s0.7,1.3,0.7,2.4v12.4c0,2-0.2,3.7-0.6,5s-1.1,2.5-2.2,3.6c-0.9,0.9-2,1.5-3.3,1.9
			s-2.7,0.6-4.4,0.6c-2,0-3.7-0.2-5.1-0.6s-2.6-1.1-3.5-2s-1.6-2-2-3.4S249.3,316.3,249.3,314.3z"/>
	</g>
</g>
</svg>
