<?xml version="1.0" encoding="utf-8"?>
<!-- Generator: Adobe Illustrator 24.0.2, SVG Export Plug-In . SVG Version: 6.00 Build 0)  -->
<svg version="1.1" id="Layer_1" xmlns="http://www.w3.org/2000/svg" xmlns:xlink="http://www.w3.org/1999/xlink" x="0px" y="0px"
	 viewBox="0 0 41 44" style="enable-background:new 0 0 41 44;" xml:space="preserve">
<style type="text/css">
	.st0{fill:none;stroke:#FFFF00;stroke-width:0.75;stroke-miterlimit:10;}
	.st1{fill:#FFFF00;}
</style>
<rect x="7.2" y="18.4" class="st0" width="3" height="3"/>
<rect x="13.2" y="18.4" class="st0" width="3" height="3"/>
<rect x="7.2" y="24.1" class="st0" width="3" height="3"/>
<rect x="13.2" y="24.1" class="st0" width="3" height="3"/>
<rect x="7.2" y="29.7" class="st0" width="3" height="3"/>
<rect x="13.2" y="29.7" class="st0" width="3" height="3"/>
<rect x="7.2" y="35.4" class="st0" width="3" height="3"/>
<rect x="13.2" y="35.4" class="st0" width="3" height="3"/>
<path class="st1" d="M27.6,20h-3.8v3.8h3.8V20z M26.8,23h-2.3v-2.3h2.3V23z"/>
<path class="st1" d="M33.6,20h-3.8v3.8h3.8V20z M32.8,23h-2.3v-2.3h2.3V23z"/>
<path class="st1" d="M27.6,25.4h-3.8v3.8h3.8V25.4z M26.8,28.4h-2.3v-2.3h2.3V28.4z"/>
<path class="st1" d="M33.6,25.4h-3.8v3.8h3.8V25.4z M32.8,28.4h-2.3v-2.3h2.3V28.4z"/>
<path class="st1" d="M27.6,30.7h-3.8v3.8h3.8V30.7z M26.8,33.7h-2.3v-2.3h2.3V33.7z"/>
<path class="st1" d="M33.6,30.7h-3.8v3.8h3.8V30.7z M32.8,33.7h-2.3v-2.3h2.3V33.7z"/>
<path class="st1" d="M27.6,36h-3.8v3.8h3.8V36z M26.8,39h-2.3v-2.3h2.3V39z"/>
<path class="st1" d="M33.6,36h-3.8v3.8h3.8V36z M32.8,39h-2.3v-2.3h2.3V39z"/>
<path class="st1" d="M27.6,4.4h-3.8v3.8h3.8V4.4z M26.8,7.4h-2.3V5.1h2.3V7.4z"/>
<path class="st1" d="M33.6,4.4h-3.8v3.8h3.8V4.4z M32.8,7.4h-2.3V5.1h2.3V7.4z"/>
<path class="st1" d="M27.6,9.7h-3.8v3.8h3.8V9.7z M26.8,12.7h-2.3v-2.3h2.3V12.7z"/>
<path class="st1" d="M33.6,9.7h-3.8v3.8h3.8V9.7z M32.8,12.7h-2.3v-2.3h2.3V12.7z"/>
<path class="st1" d="M21.6,4.4h-3.8v3.8h3.8V4.4z M20.8,7.4h-2.3V5.1h2.3V7.4z"/>
<path class="st1" d="M21.6,9.7h-3.8v3.8h3.8V9.7z M20.8,12.7h-2.3v-2.3h2.3V12.7z"/>
<path class="st1" d="M27.6,15h-3.8v3.8h3.8V15z M26.8,18h-2.3v-2.3h2.3V18z"/>
<polygon class="st1" points="20.8,20.8 20.8,23 20.2,23 20.2,23.8 21.6,23.8 21.6,20 20.2,20 20.2,20.8 "/>
<polygon class="st1" points="20.8,26.1 20.8,28.4 20.2,28.4 20.2,29.1 21.6,29.1 21.6,25.4 20.2,25.4 20.2,26.1 "/>
<polygon class="st1" points="20.8,31.5 20.8,33.7 20.2,33.7 20.2,34.5 21.6,34.5 21.6,30.7 20.2,30.7 20.2,31.5 "/>
<polygon class="st1" points="20.8,36.8 20.8,39 20.2,39 20.2,39.8 21.6,39.8 21.6,36 20.2,36 20.2,36.8 "/>
<path class="st1" d="M20.8,15.8V18h-0.6v0.8h1.4V15h-1.9c0.2,0.2,0.4,0.5,0.4,0.8H20.8z"/>
<path class="st1" d="M35.9,0.4H15.5c-1.3,0-2.3,1-2.3,2.3v10.7h-8c-1.1,0-2,0.9-2,2v26c0,1.1,0.9,2,2,2h10.3h2.7h17.7
	c1.3,0,2.3-1,2.3-2.3V2.7C38.2,1.4,37.1,0.4,35.9,0.4z M15.5,42.4h-1.9H5.2c-0.6,0-1-0.4-1-1v-26c0-0.6,0.4-1,1-1h8h1h3.6h0.4
	c0.3,0,0.6,0.2,0.8,0.4c0.1,0.2,0.2,0.4,0.2,0.6V17v0.8V19v0.8V22v0.8v1.6v0.8v2.3v0.8v1.6v0.8v2.3v0.8V35v0.8V38v0.8v2.6
	c0,0.6-0.4,1-1,1H15.5z M37.2,41.1c0,0.7-0.6,1.3-1.3,1.3h-16c0.2-0.3,0.3-0.6,0.3-1v-2.6V38v-2.3V35v-1.6v-0.8v-2.3v-0.8v-1.6v-0.8
	v-2.3v-0.8v-1.6V22v-2.3V19v-1.3V17v-1.6c0-0.2,0-0.4-0.1-0.6c-0.1-0.3-0.2-0.5-0.4-0.8c-0.4-0.4-0.9-0.6-1.4-0.6h-4V2.7
	c0-0.7,0.6-1.3,1.3-1.3h20.4c0.7,0,1.3,0.6,1.3,1.3V41.1z"/>
<path class="st1" d="M33.6,15h-3.8v3.8h3.8V15z M32.8,18h-2.3v-2.3h2.3V18z"/>
</svg>
