<?xml version="1.0" encoding="utf-8"?>
<!-- Generator: Adobe Illustrator 24.0.2, SVG Export Plug-In . SVG Version: 6.00 Build 0)  -->
<svg version="1.1" id="Layer_1" xmlns="http://www.w3.org/2000/svg" xmlns:xlink="http://www.w3.org/1999/xlink" x="0px" y="0px"
	 viewBox="0 0 52 52" style="enable-background:new 0 0 52 52;" xml:space="preserve">
<style type="text/css">
	.st0{fill:#0096E6;}
	.st1{fill:#D0E8F9;}
</style>
<g>
	<g>
		<g>
			<path class="st0" d="M50,38.9L49.8,38l-8-36H10.2l-8,36L2,38.9L1.8,40h48.5L50,38.9z M4.2,38l7.6-34h28.4l7.6,34H4.2z"/>
		</g>
	</g>
	<g>
		<g>
			<path class="st0" d="M2,38v12h48V38H2z M48,48H4v-8h44V48z"/>
		</g>
		<g>
			<path class="st1" d="M4,40v8h44v-8H4z M10,45H7v-2h3V45z M45,45H13v-2h32V45z"/>
		</g>
	</g>
	<g>
		<g>
			<rect x="13" y="43" class="st0" width="32" height="2"/>
		</g>
	</g>
	<g>
		<g>
			<rect x="7" y="43" class="st0" width="3" height="2"/>
		</g>
	</g>
</g>
</svg>
