<?xml version="1.0" encoding="utf-8"?>
<!-- Generator: Adobe Illustrator 24.0.2, SVG Export Plug-In . SVG Version: 6.00 Build 0)  -->
<svg version="1.1" id="Layer_1" xmlns="http://www.w3.org/2000/svg" xmlns:xlink="http://www.w3.org/1999/xlink" x="0px" y="0px"
	 viewBox="0 0 24 24" style="enable-background:new 0 0 24 24;" xml:space="preserve">
<style type="text/css">
	.st0{fill:#C4C4C4;}
</style>
<path class="st0" d="M19.1,3.1H4.9c-1.4,0-2.5,1.1-2.5,2.5v9.2c0,1.4,1.1,2.5,2.5,2.5h5l-0.4,2.5H8.4c-0.3,0-0.5,0.2-0.5,0.5
	s0.2,0.5,0.5,0.5H10H14h1.5c0.3,0,0.5-0.2,0.5-0.5s-0.2-0.5-0.5-0.5h-1.1l-0.4-2.5h5c1.4,0,2.5-1.1,2.5-2.5V5.6
	C21.7,4.2,20.5,3.1,19.1,3.1z M10.6,19.9l0.4-2.5h2.2l0.4,2.5H10.6z M20.6,14.8c0,0.8-0.7,1.5-1.5,1.5h-5.6h-3.1H4.9
	c-0.8,0-1.5-0.7-1.5-1.5v-0.5h17.3V14.8z M20.6,13.3H3.4V5.6c0-0.8,0.7-1.5,1.5-1.5h14.2c0.8,0,1.5,0.7,1.5,1.5
	C20.6,5.6,20.6,13.3,20.6,13.3z"/>
</svg>
