<?xml version="1.0" encoding="utf-8"?>
<!-- Generator: Adobe Illustrator 24.0.2, SVG Export Plug-In . SVG Version: 6.00 Build 0)  -->
<svg version="1.1" id="Layer_1" xmlns="http://www.w3.org/2000/svg" xmlns:xlink="http://www.w3.org/1999/xlink" x="0px" y="0px"
	 viewBox="0 0 128 128" style="enable-background:new 0 0 128 128;" xml:space="preserve">
<style type="text/css">
	.st0{fill:#FFFFFF;}
</style>
<g>
	<path class="st0" d="M18.9,31.5h14.3c0.5,4.9,4.7,8.8,9.8,8.8s9.3-3.9,9.8-8.8h56.4c0.6,0,1-0.4,1-1s-0.4-1-1-1H52.7
		c-0.5-4.9-4.7-8.8-9.8-8.8s-9.3,3.9-9.8,8.8H18.9c-0.6,0-1,0.4-1,1S18.3,31.5,18.9,31.5z M43,22.7c4.3,0,7.8,3.5,7.8,7.8
		s-3.5,7.8-7.8,7.8s-7.8-3.5-7.8-7.8S38.7,22.7,43,22.7z"/>
	<path class="st0" d="M109.1,61.2H94.8c-0.5-4.9-4.7-8.8-9.8-8.8s-9.3,3.9-9.8,8.8H18.9c-0.6,0-1,0.4-1,1s0.4,1,1,1h56.4
		c0.5,4.9,4.7,8.8,9.8,8.8s9.3-3.9,9.8-8.8h14.3c0.6,0,1-0.4,1-1S109.7,61.2,109.1,61.2z M85,70.1c-4.3,0-7.8-3.5-7.8-7.8
		s3.5-7.8,7.8-7.8s7.8,3.5,7.8,7.8S89.3,70.1,85,70.1z"/>
	<path class="st0" d="M109.1,96.5H73.6c-0.5-4.9-4.7-8.8-9.8-8.8s-9.3,3.9-9.8,8.8H18.9c-0.6,0-1,0.4-1,1s0.4,1,1,1h35.2
		c0.5,4.9,4.7,8.8,9.8,8.8s9.3-3.9,9.8-8.8h35.5c0.6,0,1-0.4,1-1C110.1,97,109.7,96.5,109.1,96.5z M63.9,105.3
		c-4.3,0-7.8-3.5-7.8-7.8s3.5-7.8,7.8-7.8s7.8,3.5,7.8,7.8C71.7,101.8,68.2,105.3,63.9,105.3z"/>
</g>
</svg>
