<?xml version="1.0" encoding="utf-8"?>
<!-- Generator: Adobe Illustrator 24.0.2, SVG Export Plug-In . SVG Version: 6.00 Build 0)  -->
<svg version="1.1" xmlns="http://www.w3.org/2000/svg" xmlns:xlink="http://www.w3.org/1999/xlink" x="0px" y="0px"
	 viewBox="0 0 290 280" style="enable-background:new 0 0 290 280;" xml:space="preserve">
<style type="text/css">
	.st0{display:none;}
	.st1{display:inline;fill:#8C8B8B;}
	.st2{display:inline;fill:#565252;}
	.st3{display:inline;fill:#3F3939;}
	.st4{display:inline;fill:#9B9B9B;}
	.st5{display:inline;fill:#3F3939;stroke:#000000;stroke-miterlimit:10;}
	.st6{display:inline;fill:#FFFFFF;}
	.st7{display:inline;}
	.st8{fill:#3F3939;}
	.st9{font-family:'ArialMT';}
	.st10{font-size:14px;}
	.st11{font-size:12px;}
	.st12{display:inline;fill:#211E1E;}
	.st13{display:inline;fill:#332F2F;}
	.st14{fill:#8C8B8B;}
	.st15{fill:#B7B7B7;}
	.st16{fill:url(#SVGID_1_);}
	.st17{fill:#9B9B9B;}
	.st18{fill:#FFFFFF;}
</style>
<g id="Layer_1" class="st0">
	<path class="st1" d="M287,257c0,5.5-4.5,10-10,10H13c-5.5,0-10-4.5-10-10V13C3,7.5,7.5,3,13,3h264c5.5,0,10,4.5,10,10V257z"/>
	<rect x="49" y="39" class="st2" width="190" height="81"/>
	<path class="st3" d="M235,105c0,5.5-4.5,10-10,10H63c-5.5,0-10-4.5-10-10V53c0-5.5,4.5-10,10-10h162c5.5,0,10,4.5,10,10V105z"/>
	<path class="st4" d="M37.4,81c2.4-2.3,3.9-5.4,3.9-9c0-6.8-5.5-12.3-12.3-12.3S16.7,65.2,16.7,72c0,3.6,1.5,6.7,3.9,9
		c-2.4,2.3-3.9,5.4-3.9,9c0,6.8,5.5,12.3,12.3,12.3S41.3,96.8,41.3,90C41.3,86.4,39.8,83.3,37.4,81z"/>
	<circle class="st4" cx="256" cy="80" r="12.3"/>
	<path class="st3" d="M171.3,230.3c0-15.3-12.4-27.7-27.7-27.7c-15.3,0-27.7,12.4-27.7,27.7c0,0.2,0,0.3,0,0.5c0,0.1,0,0.1,0,0.2v35
		c0,5.5,4.5,10,10,10h35c5.5,0,10-4.5,10-10v-31.4C171.2,233.2,171.3,231.8,171.3,230.3z"/>
	<ellipse transform="matrix(0.1602 -0.9871 0.9871 0.1602 135.4182 319.8289)" class="st3" cx="255.7" cy="80.3" rx="6" ry="6"/>
	<circle class="st5" cx="13.8" cy="14.8" r="2.8"/>
	<circle class="st5" cx="13.8" cy="253.8" r="2.8"/>
	<circle class="st5" cx="275.8" cy="253.8" r="2.8"/>
	<circle class="st5" cx="275.8" cy="14.8" r="2.8"/>
	<path class="st6" d="M260,237c0,5.5-4.5,10-10,10H38c-5.5,0-10-4.5-10-10v-82c0-5.5,4.5-10,10-10h212c5.5,0,10,4.5,10,10V237z"/>
	<g class="st7">
		<rect x="177" y="128" class="st8" width="1" height="8"/>
		<rect x="109" y="128" class="st8" width="1" height="8"/>
		<rect x="171" y="128" class="st8" width="1" height="8"/>
		<rect x="166" y="128" class="st8" width="1" height="8"/>
		<rect x="160" y="128" class="st8" width="1" height="8"/>
		<rect x="154" y="128" class="st8" width="1" height="8"/>
		<rect x="149" y="128" class="st8" width="1" height="8"/>
		<rect x="143" y="128" class="st8" width="1" height="8"/>
		<rect x="137" y="128" class="st8" width="1" height="8"/>
		<rect x="132" y="128" class="st8" width="1" height="8"/>
		<rect x="126" y="128" class="st8" width="1" height="8"/>
		<rect x="120" y="128" class="st8" width="1" height="8"/>
		<rect x="115" y="128" class="st8" width="1" height="8"/>
	</g>
	<text transform="matrix(1 0 0 1 91.8501 31.332)" class="st7 st9 st10">S M A R T M E T E R</text>
	<text transform="matrix(1 0 0 1 195.665 104.6655)" class="st6 st9 st11">k W h</text>
	<circle class="st3" cx="29" cy="72" r="6.1"/>
	<circle class="st12" cx="29" cy="72" r="3.1"/>
	<circle class="st3" cx="29" cy="90" r="6.1"/>
	<circle class="st12" cx="29" cy="90" r="3.1"/>
	<path class="st13" d="M161,265c0,1.1-0.9,2-2,2h-30c-1.1,0-2-0.9-2-2v-9c0-1.1,0.9-2,2-2h30c1.1,0,2,0.9,2,2V265z"/>
</g>
<g id="Layer_1_copy" class="st0">
	<path class="st1" d="M287,257c0,5.5-4.5,10-10,10H13c-5.5,0-10-4.5-10-10V13C3,7.5,7.5,3,13,3h264c5.5,0,10,4.5,10,10V257z"/>
	<rect x="49" y="39" class="st2" width="190" height="81"/>
	<path class="st3" d="M235,105c0,5.5-4.5,10-10,10H63c-5.5,0-10-4.5-10-10V53c0-5.5,4.5-10,10-10h162c5.5,0,10,4.5,10,10V105z"/>
	<path class="st4" d="M37.4,81c2.4-2.3,3.9-5.4,3.9-9c0-6.8-5.5-12.3-12.3-12.3S16.7,65.2,16.7,72c0,3.6,1.5,6.7,3.9,9
		c-2.4,2.3-3.9,5.4-3.9,9c0,6.8,5.5,12.3,12.3,12.3S41.3,96.8,41.3,90C41.3,86.4,39.8,83.3,37.4,81z"/>
	<circle class="st4" cx="256" cy="80" r="12.3"/>
	<path class="st3" d="M171.3,230.3c0-15.3-12.4-27.7-27.7-27.7c-15.3,0-27.7,12.4-27.7,27.7c0,0.2,0,0.3,0,0.5c0,0.1,0,0.1,0,0.2v35
		c0,5.5,4.5,10,10,10h35c5.5,0,10-4.5,10-10v-31.4C171.2,233.2,171.3,231.8,171.3,230.3z"/>
	<ellipse transform="matrix(0.1602 -0.9871 0.9871 0.1602 135.4182 319.8289)" class="st3" cx="255.7" cy="80.3" rx="6" ry="6"/>
	<circle class="st5" cx="13.8" cy="14.8" r="2.8"/>
	<circle class="st5" cx="13.8" cy="253.8" r="2.8"/>
	<circle class="st5" cx="275.8" cy="253.8" r="2.8"/>
	<circle class="st5" cx="275.8" cy="14.8" r="2.8"/>
	<path class="st6" d="M260,237c0,5.5-4.5,10-10,10H38c-5.5,0-10-4.5-10-10v-82c0-5.5,4.5-10,10-10h212c5.5,0,10,4.5,10,10V237z"/>
	<g class="st7">
		<rect x="177" y="128" class="st8" width="1" height="8"/>
		<rect x="109" y="128" class="st8" width="1" height="8"/>
		<rect x="171" y="128" class="st8" width="1" height="8"/>
		<rect x="166" y="128" class="st8" width="1" height="8"/>
		<rect x="160" y="128" class="st8" width="1" height="8"/>
		<rect x="154" y="128" class="st8" width="1" height="8"/>
		<rect x="149" y="128" class="st8" width="1" height="8"/>
		<rect x="143" y="128" class="st8" width="1" height="8"/>
		<rect x="137" y="128" class="st8" width="1" height="8"/>
		<rect x="132" y="128" class="st8" width="1" height="8"/>
		<rect x="126" y="128" class="st8" width="1" height="8"/>
		<rect x="120" y="128" class="st8" width="1" height="8"/>
		<rect x="115" y="128" class="st8" width="1" height="8"/>
	</g>
	<text transform="matrix(1 0 0 1 91.8501 31.332)" class="st7 st9 st10">S M A R T M E T E R</text>
	<text transform="matrix(1 0 0 1 195.665 104.6655)" class="st6 st9 st11">k W h</text>
	<circle class="st3" cx="29" cy="72" r="6.1"/>
	<circle class="st12" cx="29" cy="72" r="3.1"/>
	<circle class="st3" cx="29" cy="90" r="6.1"/>
	<circle class="st12" cx="29" cy="90" r="3.1"/>
	<path class="st13" d="M161,265c0,1.1-0.9,2-2,2h-30c-1.1,0-2-0.9-2-2v-9c0-1.1,0.9-2,2-2h30c1.1,0,2,0.9,2,2V265z"/>
</g>
<g id="Layer_3">
	<circle class="st14" cx="145" cy="140" r="136.2"/>
	<circle class="st15" cx="145" cy="140" r="107.6"/>
	<linearGradient id="SVGID_1_" gradientUnits="userSpaceOnUse" x1="16.3806" y1="139.9998" x2="273.6194" y2="139.9998">
		<stop  offset="0" style="stop-color:#2F2B2B"/>
		<stop  offset="1" style="stop-color:#656161"/>
	</linearGradient>
	<path class="st16" d="M145,268.6c-70.9,0-128.6-57.7-128.6-128.6S74.1,11.4,145,11.4S273.6,69.1,273.6,140S215.9,268.6,145,268.6z
		 M145,27.4C82.9,27.4,32.4,77.9,32.4,140S82.9,252.6,145,252.6S257.6,202.1,257.6,140S207.1,27.4,145,27.4z"/>
	<circle class="st17" cx="145" cy="224.5" r="18.1"/>
	<path class="st8" d="M221,108.1c0,5.5-4.5,10-10,10H79c-5.5,0-10-4.5-10-10v-29c0-5.5,4.5-10,10-10h132c5.5,0,10,4.5,10,10V108.1z"
		/>
	<path class="st14" d="M261,219.8c0,5.5-4.5,10-10,10H39c-5.5,0-10-4.5-10-10v-82c0-5.5,4.5-10,10-10h212c5.5,0,10,4.5,10,10V219.8z
		"/>
	<path class="st18" d="M252.5,213.5c0,4.7-4.1,8.5-9.3,8.5H46.8c-5.1,0-9.3-3.8-9.3-8.5v-69.9c0-4.7,4.1-8.5,9.3-8.5h196.5
		c5.1,0,9.3,3.8,9.3,8.5V213.5z"/>
</g>
</svg>
