<?xml version="1.0" encoding="utf-8"?>
<!-- Generator: Adobe Illustrator 24.0.2, SVG Export Plug-In . SVG Version: 6.00 Build 0)  -->
<svg version="1.1" id="Layer_1" xmlns="http://www.w3.org/2000/svg" xmlns:xlink="http://www.w3.org/1999/xlink" x="0px" y="0px"
	 viewBox="0 0 290 280" style="enable-background:new 0 0 290 280;" xml:space="preserve">
<style type="text/css">
	.st0{display:none;}
	.st1{display:inline;}
	.st2{fill:none;stroke:#00FBFF;stroke-width:10;stroke-linecap:round;stroke-linejoin:round;stroke-miterlimit:10;}
	.st3{fill:none;stroke:#00FBFF;stroke-width:10;stroke-linecap:round;stroke-miterlimit:10;}
	.st4{fill:#00FBFF;}
	.st5{fill:none;stroke:#00FBFF;stroke-width:10;stroke-miterlimit:10;}
	.st6{display:inline;fill:#00FBFF;}
	.st7{display:inline;fill:none;stroke:#00FBFF;stroke-width:7;stroke-linecap:round;stroke-miterlimit:10;}
	.st8{display:inline;fill:none;stroke:#00FBFF;stroke-width:8;stroke-linecap:round;stroke-miterlimit:10;}
	.st9{fill:none;}
</style>
<g id="Layer_1_2_" class="st0">
	<g id="Layer_1_1_" class="st1">
		<title></title>
		<circle class="st2" cx="145" cy="140" r="131.3"/>
		<polyline class="st2" points="74.5,67.8 110.3,103.5 65.5,103.5 		"/>
		<polyline class="st2" points="215.3,66.8 179.5,102.5 224.3,102.5 		"/>
		<path class="st2" d="M68.4,157.8c3.8,38.6,37,68.8,77.4,68.8s73.6-30.2,77.4-68.8H68.4z"/>
	</g>
	<g id="Layer_1_copy_3" class="st1">
		<title></title>
		<circle class="st2" cx="145" cy="140" r="131.3"/>
		<path class="st2" d="M68.4,157.8c3.8,38.6,37,68.8,77.4,68.8s73.6-30.2,77.4-68.8H68.4z"/>
		<g>
			<path class="st3" d="M118.1,103c-1.8-17.2-15.2-30.5-31.5-30.5S56.8,85.8,55,103"/>
		</g>
		<g>
			<path class="st3" d="M230.5,103c-1.8-17.2-15.2-30.5-31.5-30.5s-29.7,13.3-31.5,30.5"/>
		</g>
	</g>
	<g id="Layer_1_copy_2" class="st1">
		<title></title>
		<circle class="st2" cx="145" cy="140" r="131.3"/>
		<ellipse class="st4" cx="98.5" cy="89" rx="8" ry="27.5"/>
		<ellipse class="st4" cx="193" cy="89" rx="8" ry="27.5"/>
		<line class="st5" x1="63" y1="157.8" x2="229" y2="157.8"/>
	</g>
	<g id="Layer_1_copy" class="st1">
		<title></title>
		<path class="st5" d="M102.5,55c0,0,2,31.5-35.8,34.5"/>
		<ellipse class="st4" cx="110.5" cy="107" rx="7.5" ry="17"/>
		<path class="st5" d="M188.3,55c0,0-2,31.5,35.8,34.5"/>
		<ellipse class="st4" cx="180.2" cy="107" rx="7.5" ry="17"/>
		<path class="st5" d="M207.5,221c0-35.1-27.8-63.5-62.2-63.5S83.2,185.9,83.2,221"/>
		<path class="st5" d="M203.2,127c0,0,15.5,51,36.5,38.5C239.7,165.5,265.2,142,203.2,127z"/>
		<circle class="st2" cx="145" cy="140" r="131.3"/>
	</g>
</g>
<g id="Layer_2_1_" class="st0">
	<path class="st6" d="M145.5,190.4c-1.2,0-2.4-0.4-3.3-1.3c-1.4-1.2-2-3.1-1.6-4.8l10-45c0.6-2.7,3.3-4.4,6-3.8
		c2.7,0.6,4.4,3.3,3.8,6l-8.1,36.2l34.5-12c2.6-0.9,5.5,0.5,6.4,3.1s-0.5,5.5-3.1,6.4l-43,15C146.6,190.3,146.1,190.4,145.5,190.4z"
		/>
	<path class="st6" d="M102,204.9c-2.1,0-4.1-1.3-4.8-3.5c-0.9-2.6,0.6-5.4,3.2-6.3l35.2-11.5l-28.2-28.2c-2-2-2-5.1,0-7.1
		s5.1-2,7.1,0l34,34c1.2,1.2,1.7,3,1.3,4.7s-1.7,3-3.3,3.6l-43,14C103,204.8,102.5,204.9,102,204.9z"/>
	<path class="st6" d="M134,235.9c-0.4,0-0.8,0-1.2-0.1c-2.7-0.7-4.3-3.4-3.7-6l11-45c0.4-1.7,1.7-3,3.3-3.6c1.7-0.5,3.5-0.2,4.8,1
		l35,30c2.1,1.8,2.3,5,0.5,7c-1.8,2.1-5,2.3-7,0.5L147.9,195l-9.1,37.1C138.3,234.4,136.3,235.9,134,235.9z"/>
	<path class="st6" d="M242.1,163.3c-0.6-0.2-1.2-0.5-1.6-1.1c-0.5-0.8-0.6-1.8-0.2-2.7l11.1-21.9c0.7-1.3,2.3-1.8,3.6-1.2
		c1.3,0.7,1.8,2.3,1.2,3.6l-9,17.7l19.4-1.7c1.5-0.1,2.8,1,2.9,2.4c0.1,1.5-1,2.8-2.4,2.9l-24.2,2.1
		C242.7,163.4,242.4,163.4,242.1,163.3z"/>
	<path class="st6" d="M217.7,165c-1.1-0.3-1.9-1.2-2-2.4c-0.1-1.5,1-2.7,2.5-2.8l19.7-1.3l-10.8-18.3c-0.8-1.3-0.3-2.9,0.9-3.7
		c1.3-0.8,2.9-0.3,3.7,0.9l13.1,22.1c0.5,0.8,0.5,1.8,0.1,2.6s-1.3,1.4-2.2,1.4l-24.1,1.5C218.2,165.1,218,165.1,217.7,165z"/>
	<path class="st6" d="M230.1,185.3c-0.2-0.1-0.4-0.1-0.6-0.2c-1.3-0.7-1.8-2.3-1.1-3.6l11.6-21.8c0.4-0.8,1.3-1.3,2.2-1.4
		c0.9-0.1,1.8,0.4,2.3,1.1l14.1,20.1c0.8,1.2,0.6,2.9-0.7,3.7c-1.2,0.8-2.9,0.6-3.7-0.7L242.7,166l-9.6,18
		C232.5,185.1,231.3,185.6,230.1,185.3z"/>
	<path class="st6" d="M133,89.7c-0.8-0.1-1.4-0.6-1.9-1.2c-0.7-0.9-0.8-2.1-0.4-3.2l11.6-26.8c0.7-1.6,2.6-2.3,4.2-1.6
		c1.6,0.7,2.3,2.6,1.6,4.2l-9.3,21.6l22.9-3.4c1.7-0.3,3.3,0.9,3.6,2.7c0.3,1.7-0.9,3.3-2.7,3.6L134,89.7
		C133.7,89.8,133.3,89.8,133,89.7z"/>
	<path class="st6" d="M104.2,93.5c-1.3-0.3-2.4-1.3-2.5-2.7c-0.2-1.7,1-3.3,2.7-3.5l23.3-2.9l-14.2-20.9c-1-1.4-0.6-3.4,0.8-4.4
		s3.4-0.6,4.4,0.8l17.1,25.2c0.6,0.9,0.7,2.1,0.3,3.1c-0.5,1-1.4,1.7-2.5,1.8l-28.4,3.6C104.8,93.6,104.5,93.6,104.2,93.5z"/>
	<path class="st6" d="M120.4,116.6c-0.2,0-0.5-0.1-0.7-0.2c-1.6-0.7-2.3-2.6-1.6-4.2l12.2-26.7c0.5-1,1.4-1.7,2.5-1.8
		c1.1-0.1,2.2,0.3,2.9,1.2l18.2,22.8c1.1,1.4,0.9,3.4-0.5,4.4c-1.4,1.1-3.4,0.9-4.4-0.5l-15-18.8l-10.1,22
		C123.2,116.2,121.8,116.9,120.4,116.6z"/>
	<path class="st6" d="M212.3,66.6c-0.5,0.2-1.1,0.2-1.6,0c-0.8-0.3-1.3-1-1.4-1.9l-2.4-21.1c-0.1-1.3,0.8-2.4,2-2.6
		c1.3-0.1,2.4,0.8,2.6,2l2,17l13.2-10.4c1-0.8,2.4-0.6,3.2,0.4s0.6,2.4-0.4,3.2l-16.4,13C212.7,66.4,212.5,66.5,212.3,66.6z"/>
	<path class="st6" d="M195.5,79.5c-0.9,0.3-2,0-2.6-0.8c-0.8-1-0.6-2.5,0.4-3.2L207,65.2l-16.5-8c-1.1-0.6-1.6-1.9-1.1-3.1
		c0.6-1.1,1.9-1.6,3.1-1.1l19.9,9.7c0.7,0.3,1.2,1,1.3,1.8c0.1,0.8-0.3,1.6-0.9,2.1l-16.6,12.6C196,79.3,195.7,79.4,195.5,79.5z"/>
	<path class="st6" d="M214.1,88.2c-0.2,0.1-0.4,0.1-0.5,0.1c-1.3,0.1-2.4-0.8-2.5-2.1l-2-21.2c-0.1-0.8,0.3-1.6,0.9-2.1
		c0.6-0.5,1.5-0.6,2.2-0.3l19.7,7.8c1.2,0.5,1.8,1.8,1.3,3s-1.8,1.8-3,1.3L214,68.3l1.7,17.5C215.8,86.8,215.1,87.8,214.1,88.2z"/>
	<path class="st6" d="M54.5,137.9c-0.8,0.3-1.6,0.2-2.4-0.1c-1.1-0.5-1.9-1.5-2.1-2.8l-3.4-31c-0.2-1.9,1.1-3.5,3-3.7s3.5,1.1,3.7,3
		l2.8,25L75.6,113c1.5-1.2,3.6-0.9,4.8,0.6c1.2,1.5,0.9,3.6-0.6,4.8l-24.3,19C55.2,137.6,54.8,137.7,54.5,137.9z"/>
	<path class="st6" d="M29.8,156.7c-1.4,0.5-2.9,0-3.8-1.2c-1.1-1.5-0.8-3.6,0.7-4.7l20.1-15.1l-24.3-11.9c-1.7-0.8-2.4-2.9-1.5-4.5
		c0.8-1.7,2.9-2.4,4.5-1.5L54.7,132c1.1,0.5,1.8,1.6,1.9,2.7c0.1,1.2-0.4,2.3-1.3,3l-24.5,18.4C30.4,156.4,30.1,156.5,29.8,156.7z"
		/>
	<path class="st6" d="M57.1,169.5c-0.3,0.1-0.5,0.1-0.8,0.2c-1.9,0.2-3.5-1.2-3.7-3.1l-2.8-31.3c-0.1-1.2,0.4-2.3,1.4-3
		c0.9-0.7,2.2-0.9,3.3-0.4l29,11.6c1.7,0.7,2.6,2.7,1.9,4.4s-2.7,2.6-4.4,1.9l-24-9.5l2.3,25.8C59.5,167.6,58.5,169,57.1,169.5z"/>
</g>
<g id="Layer_3" class="st0">
	<line class="st7" x1="145.5" y1="12.8" x2="145.5" y2="267.3"/>
	<polyline class="st8" points="101,37.2 145.5,64.3 190,37.2 	"/>
	<polyline class="st8" points="100.7,239.8 145.1,212.7 189.6,239.8 	"/>
	<line class="st7" x1="35.2" y1="76.2" x2="255.6" y2="203.5"/>
	<polyline class="st8" points="34.1,126.9 79.9,102 78.6,49.9 	"/>
	<polyline class="st8" points="209.4,228.6 208.1,176.5 253.9,151.6 	"/>
	<line class="st7" x1="35.4" y1="202.7" x2="255.9" y2="75.5"/>
	<polyline class="st8" points="78.9,229 80.1,176.9 34.4,152 	"/>
	<polyline class="st8" points="254.5,128 208.8,103.1 210,51 	"/>
</g>
<g id="Layer_5" class="st0">
	<g class="st1">
		<g>
			<circle class="st5" cx="145" cy="140" r="61.8"/>
		</g>
		<line class="st3" x1="145" y1="12.4" x2="145" y2="40.8"/>
		<line class="st3" x1="81.2" y1="29.5" x2="95.4" y2="54.1"/>
		<line class="st3" x1="34.5" y1="76.2" x2="59.1" y2="90.4"/>
		<line class="st3" x1="17.4" y1="140" x2="45.8" y2="140"/>
		<line class="st3" x1="34.5" y1="203.8" x2="59.1" y2="189.6"/>
		<line class="st3" x1="81.2" y1="250.5" x2="95.4" y2="225.9"/>
		<line class="st3" x1="145" y1="267.6" x2="145" y2="239.2"/>
		<line class="st3" x1="208.8" y1="250.5" x2="194.6" y2="225.9"/>
		<line class="st3" x1="255.5" y1="203.8" x2="230.9" y2="189.6"/>
		<line class="st3" x1="272.6" y1="140" x2="244.2" y2="140"/>
		<line class="st3" x1="255.5" y1="76.2" x2="230.9" y2="90.4"/>
		<line class="st3" x1="208.8" y1="29.5" x2="194.6" y2="54.1"/>
	</g>
</g>
<path class="st9" d="M235.1,100.6c0-18.6-15.1-33.7-33.7-33.7c-13.2,0-24.6,7.6-30.2,18.7c21.4,6.8,38.2,23.8,45,45.3
	c0,0,0.1,0,0.1,0C227.5,125.3,235.1,113.8,235.1,100.6z"/>
<path class="st4" d="M201.4,66.9c18.6,0,33.7,15.1,33.7,33.7c0,13.2-7.6,24.7-18.7,30.2c3.2,0.1,6.2,0.5,9.2,1.2
	c9.4-7.3,15.4-18.6,15.4-31.4c0-21.9-17.8-39.7-39.7-39.7c-15.9,0-29.7,9.4-36,23c2,0.4,3.9,1,5.8,1.6
	C176.8,74.5,188.2,66.9,201.4,66.9z"/>
<path class="st4" d="M201.4,44.7c1.6,0,3-1.3,3-3V24.8c0-1.6-1.3-3-3-3c-1.6,0-3,1.3-3,3v16.9C198.4,43.3,199.7,44.7,201.4,44.7z"/>
<path class="st4" d="M169.3,51.1c0.5,1,1.5,1.5,2.6,1.5c0.5,0,1-0.1,1.5-0.4c1.4-0.8,1.9-2.6,1.1-4.1l-8.4-14.6
	c-0.8-1.4-2.6-1.9-4.1-1.1c-1.4,0.8-1.9,2.6-1.1,4.1L169.3,51.1z"/>
<path class="st4" d="M134.3,65.3l14.6,8.4c0.5,0.3,1,0.4,1.5,0.4c1,0,2-0.5,2.6-1.5c0.8-1.4,0.3-3.2-1.1-4.1l-14.6-8.4
	c-1.4-0.8-3.2-0.3-4.1,1.1C132.4,62.7,132.9,64.5,134.3,65.3z"/>
<path class="st4" d="M268.5,135.9l-14.6-8.4c-1.4-0.8-3.2-0.3-4.1,1.1c-0.8,1.4-0.3,3.2,1.1,4.1l14.6,8.4c0.5,0.3,1,0.4,1.5,0.4
	c1,0,2-0.5,2.6-1.5C270.4,138.5,269.9,136.7,268.5,135.9z"/>
<path class="st4" d="M277.1,97.6h-16.9c-1.6,0-3,1.3-3,3c0,1.6,1.3,3,3,3h16.9c1.6,0,3-1.3,3-3C280.1,99,278.8,97.6,277.1,97.6z"/>
<path class="st4" d="M252.4,74.1c0.5,0,1-0.1,1.5-0.4l14.6-8.4c1.4-0.8,1.9-2.6,1.1-4.1c-0.8-1.4-2.6-1.9-4.1-1.1l-14.6,8.4
	c-1.4,0.8-1.9,2.6-1.1,4.1C250.4,73.6,251.3,74.1,252.4,74.1z"/>
<path class="st4" d="M229.3,52.2c0.5,0.3,1,0.4,1.5,0.4c1,0,2-0.5,2.6-1.5l8.4-14.6c0.8-1.4,0.3-3.2-1.1-4.1
	c-1.4-0.8-3.2-0.3-4.1,1.1l-8.4,14.6C227.4,49.5,227.9,51.4,229.3,52.2z"/>
<g id="Layer_6">
	<path class="st4" d="M217.7,241.6H41.2V241c-18.4-2.9-32.3-17.5-32.3-35c0-11.9,6.8-23.1,17.6-29.6c-2.5-5.3-3.8-11-3.8-16.9
		c0-23.1,20.1-41.8,44.8-41.8c4.2,0,8.3,0.6,12.4,1.7c8.1-25.1,35.9-42.8,68.4-42.8c35.7,0,65.5,21.6,70.1,50
		c31.1,0.3,56.3,26,56.3,57.5C274.7,215.8,249.1,241.6,217.7,241.6z M47.7,232.3h169.9c26.3,0,47.8-21.6,47.8-48.2
		c0-26.6-21.4-48.2-47.7-48.2c-0.5,0-1.1,0-1.6,0c-0.6,0-1.3,0.1-1.9,0.1h-4.3l-0.3-4.3c-1.7-25.7-28.7-45.7-61.4-45.7
		c-30.2,0-55.7,17-60.6,40.4l-1.1,5.3l-5.1-1.9c-4.6-1.8-9.3-2.7-14-2.7c-19.6,0-35.5,14.6-35.5,32.6c0,5.7,1.6,11.4,4.8,16.3
		l2.8,4.5l-4.9,2.2c-10,4.4-16.5,13.6-16.5,23.4c0,13.9,12.3,25.4,27.9,26.2L47.7,232.3z"/>
</g>
</svg>
