<?xml version="1.0" encoding="utf-8"?>
<!-- Generator: Adobe Illustrator 24.0.2, SVG Export Plug-In . SVG Version: 6.00 Build 0)  -->
<svg version="1.1" id="Layer_1" xmlns="http://www.w3.org/2000/svg" xmlns:xlink="http://www.w3.org/1999/xlink" x="0px" y="0px"
	 viewBox="0 0 16 16" style="enable-background:new 0 0 16 16;" xml:space="preserve">
<style type="text/css">
	.st0{fill:#2E4664;}
</style>
<g id="Layer_1_copy">
	<g>
		<path class="st0" d="M5.3,11.7L5.3,11.7c-0.4,0-0.7-0.3-0.7-0.7V5c0-0.4,0.3-0.7,0.7-0.7l0,0C5.7,4.3,6,4.7,6,5v6
			C6,11.3,5.7,11.7,5.3,11.7z"/>
		<path class="st0" d="M7.7,11.7L7.7,11.7C7.3,11.7,7,11.3,7,11V5c0-0.4,0.3-0.7,0.7-0.7l0,0c0.4,0,0.7,0.3,0.7,0.7v6
			C8.4,11.3,8.1,11.7,7.7,11.7z"/>
		<path class="st0" d="M10.1,11.7L10.1,11.7c-0.4,0-0.7-0.3-0.7-0.7V5c0-0.4,0.3-0.7,0.7-0.7l0,0c0.4,0,0.7,0.3,0.7,0.7v6
			C10.8,11.3,10.5,11.7,10.1,11.7z"/>
		<rect x="5.2" y="5.5" class="st0" width="7.3" height="0.6"/>
		<rect x="3.5" y="10" class="st0" width="7.3" height="0.6"/>
	</g>
</g>
</svg>
