<?xml version="1.0" encoding="utf-8"?>
<!-- Generator: Adobe Illustrator 24.0.2, SVG Export Plug-In . SVG Version: 6.00 Build 0)  -->
<svg version="1.1" id="Layer_1" xmlns="http://www.w3.org/2000/svg" xmlns:xlink="http://www.w3.org/1999/xlink" x="0px" y="0px"
	 viewBox="0 0 24 24" style="enable-background:new 0 0 24 24;" xml:space="preserve">
<style type="text/css">
	.st0{display:none;}
	.st1{display:inline;fill:#61719F;}
	.st2{fill-rule:evenodd;clip-rule:evenodd;fill:#61719F;}
	.st3{display:inline;enable-background:new    ;}
	.st4{fill:#61719F;}
</style>
<g class="st0">
	<path class="st1" d="M23,24.2h1v-6H0v6h1H23z M1,19.2h22v4H1V19.2z"/>
	<path class="st1" d="M5.6,19.2h1v-17h-4v17h1H5.6z M3.6,3.2h2v15h-2V3.2z"/>
	<circle class="st1" cx="20.2" cy="21.2" r="0.8"/>
</g>
<g class="st0">
	<path class="st1" d="M20,0H4C2.9,0,2,0.9,2,2v20c0,1.1,0.9,2,2,2h16c1.1,0,2-0.9,2-2V2C22,0.9,21.1,0,20,0z M21,18.9V22
		c0,0.6-0.4,1-1,1H4c-0.6,0-1-0.4-1-1v-3.1V2c0-0.6,0.4-1,1-1h16c0.6,0,1,0.4,1,1V18.9z"/>
	<rect x="5.7" y="4.7" class="st1" width="12.5" height="4.1"/>
</g>
<g class="st0">
	<path class="st1" d="M15.5,0h-7c-1.1,0-2,0.9-2,2v20c0,1.1,0.9,2,2,2h7c1.1,0,2-0.9,2-2V2C17.5,0.9,16.6,0,15.5,0z M16.5,18.9V22
		c0,0.6-0.4,1-1,1h-7c-0.6,0-1-0.4-1-1v-3.1V2c0-0.6,0.4-1,1-1h7c0.6,0,1,0.4,1,1V18.9z"/>
	<rect x="10.3" y="4.7" class="st1" width="3.5" height="2.1"/>
	<rect x="10.3" y="8.7" class="st1" width="3.5" height="2.1"/>
	<circle class="st1" cx="12" cy="18.2" r="1.3"/>
</g>
<path class="st2" d="M12,20.7c0.5,0,0.9,0.4,0.9,0.9s-0.4,0.9-0.9,0.9s-0.9-0.4-0.9-0.9S11.5,20.7,12,20.7z M8.3,16.8
	c1-0.8,2.3-1.2,3.7-1.2s2.6,0.5,3.7,1.2l-0.6,0.8c-0.9-0.7-1.9-1.1-3.1-1.1s-2.2,0.4-3.1,1.1L8.3,16.8z M5.5,12.7
	c1.8-1.3,4.1-2.1,6.5-2.1s4.7,0.8,6.5,2.1l-0.6,0.8c-1.7-1.2-3.7-2-5.9-2s-4.3,0.7-5.9,2C6.1,13.6,5.5,12.7,5.5,12.7z M2.6,8.6
	c2.6-1.9,5.9-3,9.4-3s6.7,1.1,9.4,3l-0.6,0.8c-2.5-1.8-5.5-2.9-8.8-2.9S5.7,7.6,3.2,9.4C3.2,9.5,2.6,8.6,2.6,8.6z M0,4.9
	c3.4-2.4,7.5-3.8,12-3.8s8.6,1.4,12,3.8l-0.6,0.8C20.2,3.4,16.2,2.1,12,2.1S3.8,3.4,0.6,5.7L0,4.9z"/>
<g class="st0">
	<path class="st1" d="M19,0H5C3.9,0,3,0.9,3,2v20c0,1.1,0.9,2,2,2h14c1.1,0,2-0.9,2-2V2C21,0.9,20.1,0,19,0z M20,18.9V22
		c0,0.6-0.4,1-1,1H5c-0.6,0-1-0.4-1-1v-3.1V2c0-0.6,0.4-1,1-1h14c0.6,0,1,0.4,1,1V18.9z"/>
	<g class="st3">
		<path class="st4" d="M7.9,9.3c0.6,0,1.1,0.2,1.4,0.5c0.3,0.3,0.5,0.8,0.5,1.4v0.6c0,0.3,0,0.6-0.1,0.8c-0.1,0.2-0.2,0.4-0.3,0.6
			S9,13.4,8.7,13.5c-0.2,0.1-0.5,0.1-0.9,0.1H6.4V9.3H7.9z M7.1,12.9h0.6c0.2,0,0.4,0,0.5-0.1c0.2,0,0.3-0.1,0.4-0.2
			c0.1-0.1,0.2-0.2,0.2-0.4C8.9,12.1,9,11.9,9,11.7v-0.6c0-0.5-0.1-0.8-0.3-1C8.5,10,8.2,9.9,7.8,9.9H7.1V12.9z"/>
		<path class="st4" d="M12.1,9.2c0.3,0,0.6,0,0.8,0.1c0.2,0.1,0.5,0.2,0.7,0.4l-0.4,0.6C13,10.1,12.9,10,12.7,10s-0.4-0.1-0.6-0.1
			c-0.1,0-0.3,0-0.4,0.1s-0.2,0.1-0.3,0.2c-0.1,0.1-0.2,0.2-0.2,0.4c-0.1,0.2-0.1,0.4-0.1,0.7v0.4c0,0.2,0,0.4,0.1,0.6
			s0.1,0.3,0.2,0.4c0.1,0.1,0.2,0.2,0.3,0.2c0.1,0,0.3,0.1,0.4,0.1c0.2,0,0.4,0,0.6-0.1c0.2-0.1,0.4-0.2,0.6-0.4l0.4,0.6
			c-0.1,0.1-0.3,0.2-0.4,0.3s-0.3,0.1-0.4,0.2c-0.1,0-0.3,0.1-0.4,0.1s-0.3,0-0.4,0c-0.2,0-0.5,0-0.7-0.1c-0.2-0.1-0.4-0.2-0.6-0.3
			c-0.2-0.1-0.3-0.3-0.4-0.6c-0.1-0.2-0.1-0.5-0.1-0.8v-0.8c0-0.3,0-0.6,0.1-0.8c0.1-0.2,0.2-0.4,0.4-0.6s0.4-0.3,0.6-0.3
			C11.6,9.2,11.9,9.2,12.1,9.2z"/>
		<path class="st4" d="M16,13c0.2,0,0.3,0,0.4-0.1c0.1,0,0.2-0.1,0.3-0.2c0.1-0.1,0.1-0.2,0.2-0.4c0-0.1,0.1-0.3,0.1-0.5V9.3h0.8
			v2.5c0,0.4,0,0.7-0.1,0.9c-0.1,0.2-0.2,0.4-0.3,0.6c-0.1,0.1-0.3,0.2-0.5,0.3c-0.2,0.1-0.4,0.1-0.7,0.1c-0.3,0-0.5,0-0.7-0.1
			c-0.2-0.1-0.4-0.2-0.5-0.3s-0.3-0.3-0.3-0.6c-0.1-0.2-0.1-0.5-0.1-0.9V9.3h0.8v2.6c0,0.2,0,0.4,0.1,0.5c0,0.1,0.1,0.3,0.2,0.4
			c0.1,0.1,0.2,0.2,0.3,0.2S15.9,13,16,13z"/>
	</g>
	<rect x="1.6" y="4" class="st1" width="2.4" height="3.4"/>
	<rect x="1.6" y="16.6" class="st1" width="2.4" height="3.4"/>
	<rect x="20" y="4" class="st1" width="2.4" height="3.4"/>
	<rect x="20" y="16.6" class="st1" width="2.4" height="3.4"/>
</g>
</svg>
